<svg xmlns="http://www.w3.org/2000/svg" xmlns:xlink="http://www.w3.org/1999/xlink" width="284" zoomAndPan="magnify" viewBox="0 0 212.87999 112.499997" height="150" preserveAspectRatio="xMidYMid meet" version="1.0"><defs><g/><clipPath id="a19e12ddd7"><path d="M 41 12 L 103 12 L 103 44 L 41 44 Z M 41 12 " clip-rule="nonzero"/></clipPath><clipPath id="7bcbb64417"><path d="M 47.320312 4.996094 L 114.578125 22.269531 L 109.003906 43.96875 L 41.746094 26.695312 Z M 47.320312 4.996094 " clip-rule="nonzero"/></clipPath><clipPath id="7922169ce7"><path d="M 46.996094 4.914062 L 114.976562 22.375 L 109.21875 44.792969 L 41.238281 27.332031 Z M 46.996094 4.914062 " clip-rule="nonzero"/></clipPath><clipPath id="7fd421e966"><path d="M 35.429688 1.945312 L 289.277344 67.136719 L 227.609375 307.242188 L -26.234375 242.050781 Z M 35.429688 1.945312 " clip-rule="nonzero"/></clipPath><clipPath id="8e21e2e043"><path d="M 45 22 L 103 22 L 103 105 L 45 105 Z M 45 22 " clip-rule="nonzero"/></clipPath><clipPath id="eb002e3c53"><path d="M 0.414062 88.355469 L 21.519531 -0.261719 L 114.492188 21.878906 L 93.390625 110.496094 Z M 0.414062 88.355469 " clip-rule="nonzero"/></clipPath><clipPath id="63203d9e12"><path d="M 0.414062 88.355469 L 21.519531 -0.261719 L 114.492188 21.878906 L 93.390625 110.496094 Z M 0.414062 88.355469 " clip-rule="nonzero"/></clipPath><clipPath id="8164f93ae4"><path d="M 21 0 L 74 0 L 74 102 L 21 102 Z M 21 0 " clip-rule="nonzero"/></clipPath><clipPath id="53f5867ce8"><path d="M 0.414062 88.355469 L 21.519531 -0.261719 L 114.492188 21.878906 L 93.390625 110.496094 Z M 0.414062 88.355469 " clip-rule="nonzero"/></clipPath><clipPath id="219c6e6169"><path d="M 0.414062 88.355469 L 21.519531 -0.261719 L 114.492188 21.878906 L 93.390625 110.496094 Z M 0.414062 88.355469 " clip-rule="nonzero"/></clipPath><clipPath id="7dbefd01c1"><path d="M 153.8125 48.417969 L 186.667969 48.417969 L 186.667969 68.578125 L 153.8125 68.578125 Z M 153.8125 48.417969 " clip-rule="nonzero"/></clipPath><clipPath id="dcf43f7642"><path d="M 153.8125 48.417969 L 186.667969 48.417969 L 186.667969 68.578125 L 153.8125 68.578125 Z M 153.8125 48.417969 " clip-rule="nonzero"/></clipPath><clipPath id="e74ad982e8"><path d="M 153.8125 48.417969 L 186.667969 48.417969 L 186.667969 68.578125 L 153.8125 68.578125 Z M 153.8125 48.417969 " clip-rule="nonzero"/></clipPath></defs><g clip-path="url(#a19e12ddd7)"><g clip-path="url(#7bcbb64417)"><g clip-path="url(#7922169ce7)"><g clip-path="url(#7fd421e966)"><path fill="#4f4c4c" d="M 63.746094 67.355469 C 51.765625 64.277344 44.542969 52.078125 47.617188 40.109375 C 50.691406 28.140625 62.898438 20.929688 74.878906 24.007812 C 86.863281 27.085938 94.082031 39.285156 91.007812 51.253906 C 87.933594 63.222656 75.730469 70.433594 63.746094 67.355469 Z M 92.957031 58.976562 C 93.730469 57.609375 95.175781 56.757812 96.75 56.769531 L 101.410156 56.800781 C 101.710938 55.929688 101.980469 55.039062 102.214844 54.132812 C 102.445312 53.230469 102.636719 52.332031 102.792969 51.433594 L 98.695312 49.210938 C 97.3125 48.460938 96.453125 47.015625 96.4375 45.445312 C 96.4375 45.425781 96.4375 45.40625 96.4375 45.390625 C 96.421875 43.816406 97.246094 42.355469 98.617188 41.578125 L 102.675781 39.273438 C 102.320312 37.449219 101.820312 35.667969 101.179688 33.941406 L 96.507812 34.0625 C 94.9375 34.101562 93.472656 33.28125 92.671875 31.925781 C 92.664062 31.914062 92.65625 31.898438 92.648438 31.882812 C 91.84375 30.53125 91.832031 28.851562 92.625 27.496094 L 94.988281 23.472656 C 93.78125 22.078125 92.457031 20.777344 91.03125 19.589844 L 87.050781 22.027344 C 85.710938 22.847656 84.03125 22.867188 82.660156 22.09375 C 82.644531 22.082031 82.628906 22.074219 82.609375 22.066406 C 81.238281 21.292969 80.386719 19.847656 80.398438 18.273438 L 80.425781 13.617188 C 79.554688 13.316406 78.664062 13.046875 77.753906 12.8125 C 76.855469 12.582031 75.953125 12.390625 75.054688 12.234375 L 72.832031 16.328125 C 72.082031 17.710938 70.636719 18.566406 69.0625 18.578125 C 69.042969 18.578125 69.023438 18.578125 69.007812 18.578125 C 67.433594 18.597656 65.972656 17.769531 65.191406 16.402344 L 62.882812 12.347656 C 61.058594 12.699219 59.273438 13.199219 57.546875 13.839844 L 57.671875 18.503906 C 57.710938 20.078125 56.890625 21.539062 55.535156 22.335938 C 55.519531 22.34375 55.503906 22.355469 55.492188 22.363281 C 54.136719 23.164062 52.460938 23.175781 51.101562 22.382812 L 47.070312 20.019531 C 45.675781 21.222656 44.375 22.546875 43.1875 23.972656 L 45.628906 27.949219 C 46.453125 29.289062 46.46875 30.96875 45.695312 32.335938 C 45.6875 32.351562 45.679688 32.367188 45.667969 32.382812 C 44.898438 33.753906 43.449219 34.605469 41.878906 34.59375 L 37.214844 34.5625 C 36.914062 35.433594 36.644531 36.324219 36.414062 37.230469 C 36.183594 38.132812 35.988281 39.03125 35.835938 39.929688 L 39.933594 42.152344 C 41.316406 42.902344 42.175781 44.347656 42.1875 45.917969 C 42.1875 45.9375 42.1875 45.957031 42.1875 45.976562 C 42.207031 47.546875 41.378906 49.007812 40.011719 49.785156 L 35.953125 52.089844 C 36.308594 53.914062 36.808594 55.699219 37.449219 57.425781 L 42.117188 57.300781 C 43.691406 57.257812 45.15625 58.082031 45.953125 59.4375 C 45.960938 59.453125 45.972656 59.464844 45.980469 59.480469 C 46.78125 60.832031 46.796875 62.511719 46 63.867188 L 43.640625 67.894531 C 44.84375 69.285156 46.167969 70.585938 47.597656 71.777344 L 51.578125 69.335938 C 52.917969 68.515625 54.597656 68.496094 55.964844 69.269531 C 55.984375 69.28125 56 69.289062 56.015625 69.300781 C 57.390625 70.070312 58.242188 71.515625 58.230469 73.089844 L 58.203125 77.746094 C 59.074219 78.046875 59.964844 78.316406 60.871094 78.550781 C 61.773438 78.78125 62.671875 78.972656 63.574219 79.128906 L 65.796875 75.035156 C 66.546875 73.652344 67.988281 72.796875 69.5625 72.785156 C 69.582031 72.785156 69.601562 72.785156 69.621094 72.78125 C 71.195312 72.765625 72.65625 73.59375 73.433594 74.960938 L 75.742188 79.015625 C 77.566406 78.664062 79.355469 78.164062 81.082031 77.527344 L 80.957031 72.859375 C 80.914062 71.289062 81.738281 69.824219 83.09375 69.027344 C 83.109375 69.019531 83.121094 69.011719 83.136719 69.003906 C 84.488281 68.199219 86.167969 68.1875 87.527344 68.980469 L 91.558594 71.34375 C 92.953125 70.140625 94.25 68.820312 95.441406 67.390625 L 93 63.414062 C 92.175781 62.074219 92.15625 60.398438 92.929688 59.027344 C 92.941406 59.011719 92.949219 58.996094 92.957031 58.976562 " fill-opacity="1" fill-rule="nonzero"/></g></g></g></g><g clip-path="url(#8e21e2e043)"><g clip-path="url(#eb002e3c53)"><g clip-path="url(#63203d9e12)"><path fill="#ff914d" d="M 60.53125 33.898438 C 65.433594 32.742188 70.660156 32.679688 75.886719 33.925781 C 93.101562 38.023438 104.003906 54.761719 101.097656 71.964844 C 101.339844 71.203125 101.554688 70.417969 101.742188 69.628906 C 106.617188 49.160156 93.972656 28.613281 73.503906 23.738281 C 63.488281 21.351562 53.453125 23.175781 45.25 28.039062 L 51.441406 37.492188 L 66.953125 61.824219 L 58.113281 65.355469 L 95.0625 104.113281 L 70.957031 67.363281 L 78.125 63.230469 Z M 60.53125 33.898438 " fill-opacity="1" fill-rule="nonzero"/></g></g></g><g clip-path="url(#8164f93ae4)"><g clip-path="url(#53f5867ce8)"><g clip-path="url(#219c6e6169)"><path fill="#ff3131" d="M 21.46875 -0.00390625 L 41.832031 53.394531 L 27.84375 55.554688 L 63.972656 90.136719 L 64.03125 90.253906 C 59.128906 91.410156 53.902344 91.472656 48.675781 90.230469 C 31.460938 86.128906 20.558594 69.390625 23.464844 52.1875 C 23.222656 52.953125 23.007812 53.734375 22.820312 54.523438 C 17.945312 74.992188 30.589844 95.539062 51.058594 100.414062 C 58.722656 102.238281 66.394531 101.597656 73.246094 99.015625 L 49.898438 61.523438 L 55.394531 59.585938 L 58.867188 58.371094 Z M 21.46875 -0.00390625 " fill-opacity="1" fill-rule="nonzero"/></g></g></g><g fill="#737373" fill-opacity="1"><g transform="translate(87.559788, 56.209021)"><g><path d="M 11.296875 -24.578125 L 30.59375 -24.578125 C 33.4375 -24.578125 35.472656 -24 36.703125 -22.84375 C 37.941406 -21.6875 38.117188 -19.890625 37.234375 -17.453125 L 33.078125 -6.046875 C 32.898438 -5.515625 32.59375 -5.003906 32.15625 -4.515625 C 31.71875 -4.023438 31.207031 -3.613281 30.625 -3.28125 L 25.296875 -0.5625 C 24.972656 -0.363281 24.632812 -0.21875 24.28125 -0.125 C 23.925781 -0.0390625 23.570312 0 23.21875 0 L 2.375 0 Z M 26.890625 -18.65625 L 18.015625 -18.65625 L 13.40625 -5.921875 L 22.25 -5.921875 C 22.769531 -5.921875 23.273438 -6.101562 23.765625 -6.46875 C 24.265625 -6.84375 24.601562 -7.28125 24.78125 -7.78125 L 28.0625 -16.8125 C 28.257812 -17.332031 28.238281 -17.769531 28 -18.125 C 27.757812 -18.476562 27.390625 -18.65625 26.890625 -18.65625 Z M 26.890625 -18.65625 "/></g></g></g><g fill="#737373" fill-opacity="1"><g transform="translate(120.556778, 56.209021)"><g><path d="M 35.203125 -15.296875 L 32.25 -7.171875 C 32.050781 -6.617188 31.742188 -6.113281 31.328125 -5.65625 C 30.910156 -5.207031 30.425781 -4.820312 29.875 -4.5 L 22.890625 -0.5625 C 22.554688 -0.363281 22.21875 -0.21875 21.875 -0.125 C 21.539062 -0.0390625 21.195312 0 20.84375 0 L 2.234375 0 L 4.375 -5.921875 L 21.078125 -5.921875 C 21.597656 -5.921875 22.097656 -6.101562 22.578125 -6.46875 C 23.054688 -6.84375 23.382812 -7.28125 23.5625 -7.78125 L 24.171875 -9.359375 L 5.625 -9.359375 L 8.53125 -17.40625 C 8.988281 -18.59375 9.820312 -19.523438 11.03125 -20.203125 L 17.9375 -24.015625 C 18.289062 -24.222656 18.632812 -24.367188 18.96875 -24.453125 C 19.3125 -24.535156 19.648438 -24.578125 19.984375 -24.578125 L 38.5625 -24.578125 L 36.40625 -18.65625 L 19.75 -18.65625 C 19.21875 -18.65625 18.707031 -18.476562 18.21875 -18.125 C 17.726562 -17.769531 17.382812 -17.332031 17.1875 -16.8125 L 16.65625 -15.296875 Z M 35.203125 -15.296875 "/></g></g></g><g fill="#000000" fill-opacity="1"><g transform="translate(83.789836, 59.049885)"><g><path d="M 11.296875 -24.578125 L 30.59375 -24.578125 C 33.4375 -24.578125 35.472656 -24 36.703125 -22.84375 C 37.941406 -21.6875 38.117188 -19.890625 37.234375 -17.453125 L 33.078125 -6.046875 C 32.898438 -5.515625 32.59375 -5.003906 32.15625 -4.515625 C 31.71875 -4.023438 31.207031 -3.613281 30.625 -3.28125 L 25.296875 -0.5625 C 24.972656 -0.363281 24.632812 -0.21875 24.28125 -0.125 C 23.925781 -0.0390625 23.570312 0 23.21875 0 L 2.375 0 Z M 26.890625 -18.65625 L 18.015625 -18.65625 L 13.40625 -5.921875 L 22.25 -5.921875 C 22.769531 -5.921875 23.273438 -6.101562 23.765625 -6.46875 C 24.265625 -6.84375 24.601562 -7.28125 24.78125 -7.78125 L 28.0625 -16.8125 C 28.257812 -17.332031 28.238281 -17.769531 28 -18.125 C 27.757812 -18.476562 27.390625 -18.65625 26.890625 -18.65625 Z M 26.890625 -18.65625 "/></g></g></g><g fill="#000000" fill-opacity="1"><g transform="translate(116.786826, 59.049885)"><g><path d="M 35.203125 -15.296875 L 32.25 -7.171875 C 32.050781 -6.617188 31.742188 -6.113281 31.328125 -5.65625 C 30.910156 -5.207031 30.425781 -4.820312 29.875 -4.5 L 22.890625 -0.5625 C 22.554688 -0.363281 22.21875 -0.21875 21.875 -0.125 C 21.539062 -0.0390625 21.195312 0 20.84375 0 L 2.234375 0 L 4.375 -5.921875 L 21.078125 -5.921875 C 21.597656 -5.921875 22.097656 -6.101562 22.578125 -6.46875 C 23.054688 -6.84375 23.382812 -7.28125 23.5625 -7.78125 L 24.171875 -9.359375 L 5.625 -9.359375 L 8.53125 -17.40625 C 8.988281 -18.59375 9.820312 -19.523438 11.03125 -20.203125 L 17.9375 -24.015625 C 18.289062 -24.222656 18.632812 -24.367188 18.96875 -24.453125 C 19.3125 -24.535156 19.648438 -24.578125 19.984375 -24.578125 L 38.5625 -24.578125 L 36.40625 -18.65625 L 19.75 -18.65625 C 19.21875 -18.65625 18.707031 -18.476562 18.21875 -18.125 C 17.726562 -17.769531 17.382812 -17.332031 17.1875 -16.8125 L 16.65625 -15.296875 Z M 35.203125 -15.296875 "/></g></g></g><g fill="#737373" fill-opacity="1"><g transform="translate(87.559788, 86.822957)"><g><path d="M 20.3125 -24.578125 L 14.203125 -7.78125 C 14.023438 -7.28125 14.0625 -6.84375 14.3125 -6.46875 C 14.5625 -6.101562 14.953125 -5.921875 15.484375 -5.921875 L 28.703125 -5.921875 L 26.546875 0 L 10.203125 0 C 9.847656 0 9.523438 -0.0390625 9.234375 -0.125 C 8.941406 -0.21875 8.695312 -0.363281 8.5 -0.5625 L 5.140625 -3.28125 C 4.804688 -3.613281 4.609375 -4.023438 4.546875 -4.515625 C 4.484375 -5.003906 4.539062 -5.515625 4.71875 -6.046875 L 11.4375 -24.578125 Z M 20.3125 -24.578125 "/></g></g></g><g fill="#737373" fill-opacity="1"><g transform="translate(115.68651, 86.822957)"><g><path d="M 31.71875 0 L 22.84375 0 L 24.515625 -4.609375 L 15.9375 -4.609375 L 13.828125 -6.71875 L 10.53125 0 L 1.59375 0 L 10.65625 -18.546875 C 10.90625 -19.117188 11.238281 -19.648438 11.65625 -20.140625 C 12.070312 -20.640625 12.554688 -21.050781 13.109375 -21.375 L 18.46875 -24.015625 C 19.09375 -24.390625 19.769531 -24.578125 20.5 -24.578125 L 31.796875 -24.578125 C 32.148438 -24.578125 32.472656 -24.535156 32.765625 -24.453125 C 33.054688 -24.367188 33.285156 -24.222656 33.453125 -24.015625 L 37.578125 -20.203125 C 37.929688 -19.878906 38.144531 -19.46875 38.21875 -18.96875 C 38.289062 -18.476562 38.226562 -17.957031 38.03125 -17.40625 Z M 18.921875 -16.8125 L 15.515625 -10.015625 L 26.46875 -10.015625 L 28.921875 -16.8125 C 29.128906 -17.3125 29.101562 -17.742188 28.84375 -18.109375 C 28.59375 -18.472656 28.207031 -18.65625 27.6875 -18.65625 L 21.5625 -18.65625 C 21.03125 -18.65625 20.523438 -18.472656 20.046875 -18.109375 C 19.578125 -17.742188 19.203125 -17.3125 18.921875 -16.8125 Z M 18.921875 -16.8125 "/></g></g></g><g fill="#737373" fill-opacity="1"><g transform="translate(149.778366, 86.822957)"><g><path d="M 33 -14.15625 L 31.5 -13.375 C 32.726562 -13.09375 33.5625 -12.535156 34 -11.703125 C 34.445312 -10.878906 34.441406 -9.835938 33.984375 -8.578125 L 33.078125 -6.046875 C 32.898438 -5.515625 32.59375 -5.003906 32.15625 -4.515625 C 31.71875 -4.023438 31.207031 -3.613281 30.625 -3.28125 L 25.296875 -0.5625 C 24.972656 -0.363281 24.632812 -0.21875 24.28125 -0.125 C 23.925781 -0.0390625 23.570312 0 23.21875 0 L 2.375 0 L 11.296875 -24.578125 L 29 -24.578125 C 31.84375 -24.578125 33.878906 -24 35.109375 -22.84375 C 36.347656 -21.6875 36.53125 -19.890625 35.65625 -17.453125 L 35.46875 -16.921875 C 35.257812 -16.390625 34.941406 -15.878906 34.515625 -15.390625 C 34.085938 -14.898438 33.582031 -14.488281 33 -14.15625 Z M 13.40625 -5.921875 L 21.984375 -5.921875 C 22.484375 -5.921875 22.972656 -6.0625 23.453125 -6.34375 C 23.929688 -6.625 24.304688 -7.140625 24.578125 -7.890625 C 24.859375 -8.648438 24.859375 -9.160156 24.578125 -9.421875 C 24.304688 -9.679688 23.921875 -9.8125 23.421875 -9.8125 L 14.796875 -9.8125 Z M 23.875 -14.6875 C 24.375 -14.6875 24.875 -14.832031 25.375 -15.125 C 25.882812 -15.414062 26.265625 -15.9375 26.515625 -16.6875 C 26.785156 -17.445312 26.78125 -17.960938 26.5 -18.234375 C 26.226562 -18.515625 25.851562 -18.65625 25.375 -18.65625 L 18.015625 -18.65625 L 16.578125 -14.6875 Z M 23.875 -14.6875 "/></g></g></g><g fill="#000000" fill-opacity="1"><g transform="translate(83.789836, 89.663821)"><g><path d="M 20.3125 -24.578125 L 14.203125 -7.78125 C 14.023438 -7.28125 14.0625 -6.84375 14.3125 -6.46875 C 14.5625 -6.101562 14.953125 -5.921875 15.484375 -5.921875 L 28.703125 -5.921875 L 26.546875 0 L 10.203125 0 C 9.847656 0 9.523438 -0.0390625 9.234375 -0.125 C 8.941406 -0.21875 8.695312 -0.363281 8.5 -0.5625 L 5.140625 -3.28125 C 4.804688 -3.613281 4.609375 -4.023438 4.546875 -4.515625 C 4.484375 -5.003906 4.539062 -5.515625 4.71875 -6.046875 L 11.4375 -24.578125 Z M 20.3125 -24.578125 "/></g></g></g><g fill="#000000" fill-opacity="1"><g transform="translate(111.916558, 89.663821)"><g><path d="M 31.71875 0 L 22.84375 0 L 24.515625 -4.609375 L 15.9375 -4.609375 L 13.828125 -6.71875 L 10.53125 0 L 1.59375 0 L 10.65625 -18.546875 C 10.90625 -19.117188 11.238281 -19.648438 11.65625 -20.140625 C 12.070312 -20.640625 12.554688 -21.050781 13.109375 -21.375 L 18.46875 -24.015625 C 19.09375 -24.390625 19.769531 -24.578125 20.5 -24.578125 L 31.796875 -24.578125 C 32.148438 -24.578125 32.472656 -24.535156 32.765625 -24.453125 C 33.054688 -24.367188 33.285156 -24.222656 33.453125 -24.015625 L 37.578125 -20.203125 C 37.929688 -19.878906 38.144531 -19.46875 38.21875 -18.96875 C 38.289062 -18.476562 38.226562 -17.957031 38.03125 -17.40625 Z M 18.921875 -16.8125 L 15.515625 -10.015625 L 26.46875 -10.015625 L 28.921875 -16.8125 C 29.128906 -17.3125 29.101562 -17.742188 28.84375 -18.109375 C 28.59375 -18.472656 28.207031 -18.65625 27.6875 -18.65625 L 21.5625 -18.65625 C 21.03125 -18.65625 20.523438 -18.472656 20.046875 -18.109375 C 19.578125 -17.742188 19.203125 -17.3125 18.921875 -16.8125 Z M 18.921875 -16.8125 "/></g></g></g><g fill="#000000" fill-opacity="1"><g transform="translate(146.008414, 89.663821)"><g><path d="M 33 -14.15625 L 31.5 -13.375 C 32.726562 -13.09375 33.5625 -12.535156 34 -11.703125 C 34.445312 -10.878906 34.441406 -9.835938 33.984375 -8.578125 L 33.078125 -6.046875 C 32.898438 -5.515625 32.59375 -5.003906 32.15625 -4.515625 C 31.71875 -4.023438 31.207031 -3.613281 30.625 -3.28125 L 25.296875 -0.5625 C 24.972656 -0.363281 24.632812 -0.21875 24.28125 -0.125 C 23.925781 -0.0390625 23.570312 0 23.21875 0 L 2.375 0 L 11.296875 -24.578125 L 29 -24.578125 C 31.84375 -24.578125 33.878906 -24 35.109375 -22.84375 C 36.347656 -21.6875 36.53125 -19.890625 35.65625 -17.453125 L 35.46875 -16.921875 C 35.257812 -16.390625 34.941406 -15.878906 34.515625 -15.390625 C 34.085938 -14.898438 33.582031 -14.488281 33 -14.15625 Z M 13.40625 -5.921875 L 21.984375 -5.921875 C 22.484375 -5.921875 22.972656 -6.0625 23.453125 -6.34375 C 23.929688 -6.625 24.304688 -7.140625 24.578125 -7.890625 C 24.859375 -8.648438 24.859375 -9.160156 24.578125 -9.421875 C 24.304688 -9.679688 23.921875 -9.8125 23.421875 -9.8125 L 14.796875 -9.8125 Z M 23.875 -14.6875 C 24.375 -14.6875 24.875 -14.832031 25.375 -15.125 C 25.882812 -15.414062 26.265625 -15.9375 26.515625 -16.6875 C 26.785156 -17.445312 26.78125 -17.960938 26.5 -18.234375 C 26.226562 -18.515625 25.851562 -18.65625 25.375 -18.65625 L 18.015625 -18.65625 L 16.578125 -14.6875 Z M 23.875 -14.6875 "/></g></g></g><path fill="#ffffff" d="M 170.152344 67.386719 L 156.226562 67.386719 C 156.226562 58.558594 162.46875 51.40625 170.152344 51.40625 C 177.835938 51.40625 184.074219 58.558594 184.074219 67.386719 Z M 170.152344 67.386719 " fill-opacity="1" fill-rule="evenodd"/><g clip-path="url(#7dbefd01c1)"><path stroke-linecap="butt" transform="matrix(0.176255, 0, 0, 0.17973, 152.614226, 40.443591)" fill="none" stroke-linejoin="miter" d="M 99.504075 149.908949 L 20.494913 149.908949 C 20.494913 100.790118 55.910521 60.995171 99.504075 60.995171 C 143.09763 60.995171 178.491075 100.790118 178.491075 149.908949 Z M 99.504075 149.908949 " stroke="#000000" stroke-width="11" stroke-opacity="1" stroke-miterlimit="22.926001"/></g><path fill="#ffffff" d="M 156.367188 64.3125 L 184.109375 64.3125 C 184.992188 64.3125 185.699219 65.046875 185.699219 65.929688 C 185.699219 66.828125 184.976562 67.546875 184.109375 67.546875 L 156.367188 67.546875 C 155.488281 67.546875 154.78125 66.808594 154.78125 65.929688 C 154.78125 65.046875 155.488281 64.3125 156.367188 64.3125 Z M 156.367188 64.3125 " fill-opacity="1" fill-rule="evenodd"/><g clip-path="url(#dcf43f7642)"><path stroke-linecap="butt" transform="matrix(0.176255, 0, 0, 0.17973, 152.614226, 40.443591)" fill="none" stroke-linejoin="miter" d="M 21.292761 132.804295 L 178.690537 132.804295 C 183.699252 132.804295 187.710657 136.890286 187.710657 141.802169 C 187.710657 146.800988 183.610602 150.800043 178.690537 150.800043 L 21.292761 150.800043 C 16.306208 150.800043 12.294804 146.692318 12.294804 141.802169 C 12.294804 136.890286 16.306208 132.804295 21.292761 132.804295 Z M 21.292761 132.804295 " stroke="#000000" stroke-width="11" stroke-opacity="1" stroke-miterlimit="22.926001"/></g><path fill="#ffffff" d="M 168.953125 49.449219 L 171.527344 49.449219 C 173.023438 49.449219 174.257812 50.707031 174.257812 52.234375 L 174.257812 64.113281 L 166.222656 64.113281 L 166.222656 52.25 C 166.222656 50.707031 167.453125 49.449219 168.953125 49.449219 Z M 168.953125 49.449219 " fill-opacity="1" fill-rule="evenodd"/><g clip-path="url(#e74ad982e8)"><path stroke-linecap="butt" transform="matrix(0.176255, 0, 0, 0.17973, 152.614226, 40.443591)" fill="none" stroke-linejoin="miter" d="M 92.700201 50.106439 L 107.30526 50.106439 C 115.793482 50.106439 122.796818 57.104786 122.796818 65.602778 L 122.796818 131.695861 L 77.208643 131.695861 L 77.208643 65.689714 C 77.208643 57.104786 84.189817 50.106439 92.700201 50.106439 Z M 92.700201 50.106439 " stroke="#000000" stroke-width="11" stroke-opacity="1" stroke-miterlimit="22.926001"/></g></svg>